<svg version="1.1" xmlns="http://www.w3.org/2000/svg" viewBox="0 0 1906 1392.5" preserveAspectRatio="xMid meet" style="overflow: hidden">
						<style type="text/css">
							.st0{fill:url(#XMLID_20_);}
							.st1{fill:#201244;}
							.st2{fill:url(#XMLID_22_);}
							.st3{fill:url(#XMLID_23_);}
							.st4{fill:url(#XMLID_29_);}
							.st5{fill:url(#XMLID_30_);}
							.st6{fill:url(#XMLID_32_);}
							.st7{opacity:0.26;}
							.st8{fill:#82F5A7;}
							.st9{fill:#261F4A;}
							.st10{fill:url(#XMLID_33_);}
							.st11{fill:url(#XMLID_35_);}
							.st12{fill:none;stroke:#201244;stroke-width:2.8346;stroke-miterlimit:10;}
							.st13{fill:url(#XMLID_36_);}
							.st14{fill:url(#XMLID_37_);}
							.st15{fill:url(#XMLID_38_);}
							.st16{fill:url(#XMLID_39_);}
							.st17{fill:url(#XMLID_63_);}
							.st18{fill:url(#XMLID_85_);}
							.st19{fill:url(#XMLID_88_);}
							.st20{fill:url(#XMLID_89_);}
							.st21{fill:url(#XMLID_91_);}
							.st22{font-family:'Anonymous Pro'; font-weight: bold}
							.st23{font-size:19.8208px;}
							.st24{fill:url(#XMLID_92_);}
							.st25{fill:url(#XMLID_93_);}
							.st26{fill:url(#XMLID_94_);}
							.st27{fill:url(#XMLID_95_);}
							.st28{fill:url(#XMLID_98_);}
							.st29{fill:url(#XMLID_99_);}
							.st30{fill:url(#XMLID_100_);}
							.st31{fill:url(#XMLID_101_);}
							.st32{fill:url(#XMLID_102_);}
							.st33{fill:url(#XMLID_103_);}
							.st34{fill:url(#XMLID_104_);}
						</style>
						<g id="bg">
							<radialGradient id="XMLID_20_" cx="811.0515" cy="762.1169" r="899.8147" gradientUnits="userSpaceOnUse">
								<stop  offset="0" style="stop-color:#82F5A7"/>
								<stop  offset="0.1013" style="stop-color:#71CD96"/>
								<stop  offset="0.262" style="stop-color:#59957D"/>
								<stop  offset="0.4182" style="stop-color:#446669"/>
								<stop  offset="0.5659" style="stop-color:#354259"/>
								<stop  offset="0.7031" style="stop-color:#29274D"/>
								<stop  offset="0.8259" style="stop-color:#221846"/>
								<stop  offset="0.9221" style="stop-color:#201244"/>
							</radialGradient>
							<rect id="XMLID_25_" class="st0" width="1906" height="1392.5"/>
							<rect id="XMLID_16_" y="1275.9" class="st1" width="1906" height="116.6"/>
						</g>
						<g id="table">
							<linearGradient id="XMLID_22_" gradientUnits="userSpaceOnUse" x1="600.5161" y1="1707.2904" x2="600.5161" y2="842.6451">
								<stop  offset="0" style="stop-color:#82F5A7"/>
								<stop  offset="1" style="stop-color:#201244"/>
							</linearGradient>
							<rect id="XMLID_27_" x="456.3" y="891" class="st2" width="288.4" height="384.8"/>
							<linearGradient id="XMLID_23_" gradientUnits="userSpaceOnUse" x1="1305.4697" y1="1707.2904" x2="1305.4697" y2="842.6451">
								<stop  offset="0" style="stop-color:#82F5A7"/>
								<stop  offset="0.4981" style="stop-color:#518476"/>
								<stop  offset="1" style="stop-color:#201244"/>
							</linearGradient>
							<rect id="XMLID_8_" x="1161.2" y="891" class="st3" width="288.4" height="384.8"/>
							<linearGradient id="XMLID_29_" gradientUnits="userSpaceOnUse" x1="600.5161" y1="816.9853" x2="600.5161" y2="893.0368">
								<stop  offset="0" style="stop-color:#82F5A7"/>
								<stop  offset="1" style="stop-color:#201244"/>
							</linearGradient>
							<rect id="XMLID_84_" x="456.3" y="891" class="st4" width="288.4" height="384.8"/>
							<rect id="XMLID_81_" x="1161.2" y="891" class="st1" width="288.4" height="384.8"/>
							<rect id="XMLID_26_" x="456.3" y="849.5" class="st1" width="993.4" height="41.5"/>
						</g>
						<g id="mug">
							<g id="XMLID_13_">
								<linearGradient id="XMLID_30_" gradientUnits="userSpaceOnUse" x1="1308.144" y1="813.6705" x2="1375.7229" y2="813.6705">
									<stop  offset="0" style="stop-color:#82F5A7"/>
									<stop  offset="1" style="stop-color:#201244"/>
								</linearGradient>
								<path id="XMLID_76_" class="st5" d="M1381.4,794.1c0,1.6,0,3.3-0.1,5.1c-0.1,6.6-0.4,14.5-1.1,22.1c-0.2,1.7-0.3,3.4-0.5,5.1
									c-0.8,7.4-2.1,14.3-3.9,19.1c-0.5,1.4-2.1,4.1-4.3,4.1h-41.1c-2.3,0-3.8-2.7-4.3-4.1c-6.8-17.9-5.5-63.1-5.5-63.1
									c-0.2-2.4,1.8-4.5,4.2-4.5h52.3c2.4,0,4.4,2,4.2,4.5C1381.3,782.3,1381.4,787,1381.4,794.1z"/>
								<linearGradient id="XMLID_32_" gradientUnits="userSpaceOnUse" x1="1308.144" y1="810.1705" x2="1375.7229" y2="810.1705">
									<stop  offset="0" style="stop-color:#82F5A7"/>
									<stop  offset="1" style="stop-color:#201244"/>
								</linearGradient>
								<path id="XMLID_47_" class="st6" d="M1383.4,794.1h-2c0,1.6,0,3.3-0.1,5.1h2.6c4.7,0,8.5,3.8,8.5,8.5v5.1c0,4.7-3.8,8.5-8.5,8.5
									h-3.7c-0.2,1.7-0.3,3.4-0.5,5.1h3.7c7.8,0,14.1-6.3,14.1-14.1v-4C1397.5,800.4,1391.2,794.1,1383.4,794.1z"/>
							</g>
							<g id="steam">
								<g id="XMLID_42_" class="st7">
									<path id="XMLID_57_" class="st8" d="M1355.8,729.4c13.3,16.6-10.8,24.5-2.6,42.3C1327.8,755.9,1360.3,753.3,1355.8,729.4z"/>
									<path id="XMLID_52_" class="st8" d="M1346.2,723.1c9.8,12.2-6.5,16.8-0.4,29.8C1327,741.4,1345.9,740.7,1346.2,723.1z"/>
								</g>
							</g>
						</g>
						<g id="digital_clock">
							<g id="XMLID_11_">
								<path id="XMLID_70_" class="st9" d="M692,849.5h-69.6c-3.4,0-6.2-2.8-6.2-6.2v-32.9c0-3.4,2.8-6.2,6.2-6.2H692
									c3.4,0,6.2,2.8,6.2,6.2v32.9C698.2,846.7,695.4,849.5,692,849.5z"/>
								<path id="XMLID_40_" class="st1" d="M688,845.5h-61.6c-3.4,0-6.2-2.8-6.2-6.2v-24.9c0-3.4,2.8-6.2,6.2-6.2H688
									c3.4,0,6.2,2.8,6.2,6.2v24.9C694.2,842.7,691.4,845.5,688,845.5z"/>
								<g id="XMLID_83_">
									<path id="XMLID_144_" class="st8" d="M634.4,820v4.9l-1.5,1.5l-0.5-0.5v-6.7L634.4,820z M632.3,834.2v-6.7l0.5-0.5l1.5,1.5v4.9
										L632.3,834.2z M641.3,836h-7.7c-0.7-0.2-1.1-0.6-1.3-1.3l2.1-0.8h6.2L641.3,836z M640.5,819.5h-6.1l-2.1-0.8
										c0.2-0.7,0.6-1.1,1.3-1.3h7.7L640.5,819.5z M641,824.9v-5.4l0.8-2.1c0.7,0.2,1.1,0.6,1.3,1.3v7.2l-0.5,0.5L641,824.9z M642.6,827
										l0.5,0.5v7.2c-0.2,0.7-0.6,1.1-1.3,1.3l-0.8-2.1v-5.4L642.6,827z"/>
									<path id="XMLID_159_" class="st8" d="M647.7,820v4.9l-1.5,1.5l-0.5-0.5v-6.7L647.7,820z M645.7,834.2v-6.7l0.5-0.5l1.5,1.5v4.9
										L645.7,834.2z M654.6,836h-7.7c-0.7-0.2-1.1-0.6-1.3-1.3l2.1-0.8h6.2L654.6,836z M653.9,819.5h-6.1l-2.1-0.8
										c0.2-0.7,0.6-1.1,1.3-1.3h7.7L653.9,819.5z M654.4,825.7l1,1l-1,1h-6.7l-1-1l1-1H654.4z M654.4,824.9v-5.4l0.8-2.1
										c0.7,0.2,1.1,0.6,1.3,1.3v7.2l-0.5,0.5L654.4,824.9z M655.9,827l0.5,0.5v7.2c-0.2,0.7-0.6,1.1-1.3,1.3l-0.8-2.1v-5.4L655.9,827z"
										/>
									<path id="XMLID_167_" class="st8" d="M661,823.6H659v-2.1h2.1V823.6z M661,831.9H659v-2.1h2.1V831.9z"/>
									<path id="XMLID_170_" class="st8" d="M663.6,824.9v-5.4l0.8-2.1c0.7,0.2,1.1,0.6,1.3,1.3v7.2l-0.5,0.5L663.6,824.9z M665.2,827
										l0.5,0.5v7.2c-0.2,0.7-0.6,1.1-1.3,1.3l-0.8-2.1v-5.4L665.2,827z"/>
									<path id="XMLID_173_" class="st8" d="M670.3,820v4.9l-1.5,1.5l-0.5-0.5v-6.7L670.3,820z M677.2,836h-7.7
										c-0.7-0.2-1.1-0.6-1.3-1.3l2.1-0.8h6.2L677.2,836z M677.2,819.5h-6.9l-2.1-0.8c0.2-0.7,0.6-1.1,1.3-1.3h8.4L677.2,819.5z
										 M677,825.7l1,1l-1,1h-6.7l-1-1l1-1H677z M678.5,827l0.5,0.5v7.2c-0.2,0.7-0.6,1.1-1.3,1.3l-0.8-2.1v-5.4L678.5,827z"/>
								</g>
							</g>
						</g>
						<g id="round_clock">
							<linearGradient id="XMLID_33_" gradientUnits="userSpaceOnUse" x1="581.6444" y1="446.2776" x2="537.6444" y2="378.2776">
								<stop  offset="0" style="stop-color:#82F5A7"/>
								<stop  offset="1" style="stop-color:#201244"/>
							</linearGradient>
							<circle id="XMLID_51_" class="st10" cx="555.4" cy="405.7" r="67.8"/>
							<linearGradient id="XMLID_35_" gradientUnits="userSpaceOnUse" x1="601.7804" y1="479.0487" x2="512.4192" y2="337.7614">
								<stop  offset="0" style="stop-color:#82F5A7"/>
								<stop  offset="1" style="stop-color:#201244"/>
							</linearGradient>
							<circle id="XMLID_54_" class="st11" cx="555.4" cy="405.7" r="58.8"/>
							<circle id="XMLID_6_" class="st8" cx="555.4" cy="405.7" r="3.4"/>
							<line id="XMLID_77_" class="st12" x1="555.4" y1="405.7" x2="531.8" y2="425.3"/>
							<line id="XMLID_79_" class="st12" x1="611.2" y1="405.7" x2="555.4" y2="405.7"/>
						</g>
						<g id="lamp">
							<g id="XMLID_1_">
								<g id="XMLID_45_">
									<path id="XMLID_90_" class="st1" d="M637.9,843.5v2.3c0,2.3-1.9,4.2-4.2,4.2h-74.6c-2.3,0-4.2-1.9-4.2-4.2v-2.3
										c0-2.3,1.9-4.2,4.2-4.2h74.6C636,839.3,637.9,841.2,637.9,843.5z"/>
								</g>
								<g id="XMLID_59_">
									<polygon id="XMLID_18_" class="st1" points="594.9,843.5 594.9,796.1 547.5,715.8 604.8,631.4 607.3,633.1 551.1,715.9
										597.9,795.2 597.9,843.5 			"/>
								</g>
								<g id="XMLID_62_">
									<g id="XMLID_49_">
										<path id="XMLID_31_" class="st8" d="M621.8,616.1c-7.5,0-14.1,2.1-18.2,6.9c-11.6,13.4,0.1,41.5,18.4,57.7l5.9,5.1
											c0.8,0.7,1.8,1,2.9,1c1.1-0.1,2-0.6,2.7-1.4l36.1-41.8c1.4-1.7,1.3-4.2-0.4-5.7l-5.9-5.1C651.8,622.8,635.3,616.1,621.8,616.1z"
											/>
										<linearGradient id="XMLID_36_" gradientUnits="userSpaceOnUse" x1="647.3693" y1="588.3192" x2="624.4252" y2="635.4149">
											<stop  offset="0" style="stop-color:#82F5A7"/>
											<stop  offset="1" style="stop-color:#201244"/>
										</linearGradient>
										<path id="XMLID_87_" class="st13" d="M670.4,644.2l-36.2,41.8c-1,1.1-2.4,1.7-3.8,1.7c-1.2,0-2.3-0.4-3.3-1.2l-5.9-5.1
											c-14.8-13.1-25.3-34-23-49l-10-8.7c-4.4-3.8-4.9-10.5-1.1-14.9c3.8-4.4,10.5-4.9,14.9-1.1l10,8.7c14.6-4.5,37.1,2.9,51.8,15.6
											l5.9,5.1C672,639,672.2,642.2,670.4,644.2z"/>
									</g>
								</g>
							</g>
						</g>
						<g id="comp">
							<path id="XMLID_21_" class="st1" d="M1124.5,519.2v262.9c0,6.6-5.3,12-12,12H740.4c-6.6,0-12-5.4-12-12V519.2c0-6.6,5.4-12,12-12
								h372.1C1119.1,507.3,1124.5,512.6,1124.5,519.2z"/>
							<path id="XMLID_19_" class="st1" d="M1124.5,519.2V750H728.4V519.2c0-6.6,5.4-12,12-12h372.1
								C1119.1,507.3,1124.5,512.6,1124.5,519.2z"/>
							<linearGradient id="XMLID_37_" gradientUnits="userSpaceOnUse" x1="866.6621" y1="848.8373" x2="925.6621" y2="823.8373">
								<stop  offset="0" style="stop-color:#82F5A7"/>
								<stop  offset="1" style="stop-color:#201244"/>
							</linearGradient>
							<path id="XMLID_17_" class="st14" d="M960.6,849.5h-68.3c8.3-11.2,8.2-35.7,8.1-55.5h52C952.3,813.8,952.3,838.4,960.6,849.5z"/>
							<path id="XMLID_24_" class="st1" d="M1103.7,849.5H749.2c-0.7,0-1.3-0.6-1.3-1.3v-12.3c0-0.7,0.6-1.3,1.3-1.3h354.5
								c0.7,0,1.3,0.6,1.3,1.3v12.3C1105,848.9,1104.4,849.5,1103.7,849.5z"/>
							<g id="XMLID_28_">
								<linearGradient id="XMLID_38_" gradientUnits="userSpaceOnUse" x1="1170.031" y1="824.9746" x2="1187.3698" y2="856.4011">
									<stop  offset="0" style="stop-color:#82F5A7"/>
									<stop  offset="1" style="stop-color:#201244"/>
								</linearGradient>
								<path id="XMLID_78_" class="st15" d="M1157.8,833c14.6-2.3,29.5-2.3,44.1,0c4.7,0.8,8.4,5.5,8.4,10.1v0c0,3.5-2.9,6.4-6.4,6.4
									c-16,0-32.1,0-48.1,0c-3.6-0.1-6.4-2.9-6.4-6.4v0C1149.3,838.5,1153.1,833.8,1157.8,833z"/>
							</g>
							<rect id="XMLID_43_" x="743.7" y="519.7" class="st1" width="365.5" height="219.8"/>
							<linearGradient id="XMLID_39_" gradientUnits="userSpaceOnUse" x1="892.7087" y1="665.0278" x2="1031.6985" y2="777.2169">
								<stop  offset="0" style="stop-color:#82F5A7"/>
								<stop  offset="1" style="stop-color:#201244"/>
							</linearGradient>
							<path id="XMLID_55_" class="st16" d="M1109.7,644.9l-0.5,94.6l-365.5,0.6V636.8c32.9-9.7,74.3-22,104-34.6
								c32.4-13.8,41.9-21.2,52.5-23.9c10.5-2.6,27.5,6.3,59.1,5c0.4,0,0.8,0,1.2,0C978.7,582.3,1046.8,626.4,1109.7,644.9z"/>
							<linearGradient id="XMLID_63_" gradientUnits="userSpaceOnUse" x1="834.7345" y1="584.8524" x2="871.2048" y2="679.3436">
								<stop  offset="0" style="stop-color:#82F5A7"/>
								<stop  offset="1" style="stop-color:#201244"/>
							</linearGradient>
							<path id="XMLID_53_" class="st17" d="M981.5,637.7c-9.5,5.3-63.2-1.4-85.5,10.4c-22.3,11.9-37.2,47.7-73.8,48.1
								c-26.5,0.3-61.3-7.4-78.6-11.6v-47.8c32.9-9.7,74.3-22,104-34.6c32.4-13.8,41.9-21.2,52.5-23.9c10.5-2.6,27.5,6.3,59.1,5
								c-15.3,5.8-32.1,9.5-38.9,9.9c-10.6,0.5,6.4,13.3,23.9,18.6C961.9,617.1,991.1,632.4,981.5,637.7z"/>
							<linearGradient id="XMLID_85_" gradientUnits="userSpaceOnUse" x1="840.6303" y1="607.4432" x2="892.8491" y2="725.9716">
								<stop  offset="0" style="stop-color:#82F5A7"/>
								<stop  offset="1" style="stop-color:#201244"/>
							</linearGradient>
							<path id="XMLID_58_" class="st18" d="M981.5,637.7c-9.5,5.3-63.2-1.4-85.5,10.4c-22.3,11.9-37.2,47.7-73.8,48.1
								c-26.5,0.3-61.3-7.4-78.6-11.6v-33.9c52.2-12.8,137.2-37,173.5-55.5c0.5,3.9,13.7,12.4,27.2,16.5
								C961.9,617.1,991.1,632.4,981.5,637.7z"/>
							<linearGradient id="XMLID_88_" gradientUnits="userSpaceOnUse" x1="900.1088" y1="649.2604" x2="932.4325" y2="751.2042">
								<stop  offset="0" style="stop-color:#82F5A7"/>
								<stop  offset="1" style="stop-color:#201244"/>
							</linearGradient>
							<path id="XMLID_56_" class="st19" d="M1109.2,724.6l0,14.9l-365.5,0.6v-55.5c17.3,4.3,52.1,11.9,78.6,11.6
								c36.6-0.4,51.5-36.2,73.8-48.1c22.3-11.9,75.9-5.1,85.5-10.4c4.6-2.6,0.2-7.5-7.6-12.5C996.8,638.6,1054.9,665.3,1109.2,724.6z"/>
							<rect id="XMLID_48_" x="742.1" y="517.4" class="st1" width="368.7" height="10.9"/>
							<path id="XMLID_64_" class="st8" d="M1100,540.7v12.9c0,1.2-1,2.3-2.3,2.3h-18.7c-1.2,0-2.3-1-2.3-2.3v-12.9c0-1.3,1-2.3,2.3-2.3
								h0.1v-0.9c0-0.4,0.3-0.7,0.7-0.7h6.9c0.4,0,0.7,0.3,0.7,0.7v0.9h10.3C1098.9,538.4,1100,539.4,1100,540.7z"/>
							<path id="XMLID_50_" class="st8" d="M1100,565.9v12.9c0,1.2-1,2.3-2.3,2.3h-18.7c-1.2,0-2.3-1-2.3-2.3v-12.9c0-1.3,1-2.3,2.3-2.3
								h0.1v-0.9c0-0.4,0.3-0.7,0.7-0.7h6.9c0.4,0,0.7,0.3,0.7,0.7v0.9h10.3C1098.9,563.6,1100,564.6,1100,565.9z"/>
						</g>
						<g id="pin_board">
							<linearGradient id="XMLID_89_" gradientUnits="userSpaceOnUse" x1="1104.9493" y1="774.3119" x2="1309.5502" y2="522.0062">
								<stop  offset="0" style="stop-color:#82F5A7"/>
								<stop  offset="1" style="stop-color:#201244"/>
							</linearGradient>
							<rect id="XMLID_41_" x="1166.1" y="379.3" class="st20" width="252.9" height="327.5"/>
							<rect id="XMLID_46_" x="1176.1" y="389.3" class="st1" width="232.9" height="307.5"/>
							<linearGradient id="XMLID_91_" gradientUnits="userSpaceOnUse" x1="1156.9583" y1="597.3491" x2="1428.3459" y2="425.6115">
								<stop  offset="0" style="stop-color:#82F5A7"/>
								<stop  offset="1" style="stop-color:#201244"/>
							</linearGradient>
							<polygon id="XMLID_44_" class="st21" points="1344.7,618.6 1210.1,623.7 1202.7,428.4 1337.3,423.3 	"/>
							<circle id="XMLID_3_" class="st1" cx="1279.6" cy="432.8" r="3"/>
							<text id="XMLID_4_" transform="matrix(0.9991 -4.256000e-002 4.256000e-002 0.9991 1210.3049 464.0826)"><tspan x="0" y="0" class="st1 st22 st23">- HTML</tspan><tspan x="0" y="23.8" class="st1 st22 st23">- JS</tspan><tspan x="0" y="47.6" class="st1 st22 st23">- CSS/SASS</tspan><tspan x="0" y="71.4" class="st1 st22 st23">- jQuery</tspan><tspan x="0" y="95.1" class="st1 st22 st23">- Bootstrap</tspan><tspan x="0" y="118.9" class="st1 st22 st23">- Git</tspan><tspan x="0" y="142.7" class="st1 st22 st23">- Gulp</tspan></text>
						</g>
						<g id="shelf">
							<path id="XMLID_73_" class="st1" d="M793.8,377.4c15-17.8,27.3-84.8,29.1-111.1c-48.1,47.6-39.4,110.4-39.4,110.4L793.8,377.4z"/>
							<linearGradient id="XMLID_92_" gradientUnits="userSpaceOnUse" x1="782.8622" y1="330.0401" x2="834.1895" y2="330.0401">
								<stop  offset="0" style="stop-color:#82F5A7"/>
								<stop  offset="1" style="stop-color:#201244"/>
							</linearGradient>
							<path id="XMLID_72_" class="st24" d="M787.1,370.2c9.4-11.5-3.2-45.3,16.5-66.7s30.6-26.2,30.6-26.2s-12.6,17.8-19.8,42
								c-7.2,24.2,7.2,29.2-17.2,53.4C772.7,396.9,787.1,370.2,787.1,370.2z"/>
							<linearGradient id="XMLID_93_" gradientUnits="userSpaceOnUse" x1="722.8495" y1="348.3046" x2="805.5857" y2="348.3046">
								<stop  offset="0" style="stop-color:#82F5A7"/>
								<stop  offset="1" style="stop-color:#201244"/>
							</linearGradient>
							<path id="XMLID_74_" class="st25" d="M796.9,375.1c-13.3-6.6-15.7-42.6-42.4-54.1c-26.7-11.4-31.6-9.8-31.6-9.8s11.8,9.6,28.3,28.7
								c16.5,19.1,5.4,29.6,37.7,41.6C821,393.5,796.9,375.1,796.9,375.1z"/>
							<linearGradient id="XMLID_94_" gradientUnits="userSpaceOnUse" x1="731.4039" y1="354.2875" x2="794.1982" y2="354.2875">
								<stop  offset="0" style="stop-color:#82F5A7"/>
								<stop  offset="1" style="stop-color:#201244"/>
							</linearGradient>
							<path id="XMLID_66_" class="st26" d="M794,370.3c-30.1-19.7-54.9-29.1-62.6-40.6c14.1,26.3,27.4,38.9,46.7,46.7
								C797.4,384.2,794,370.3,794,370.3z"/>
							<path id="XMLID_68_" class="st1" d="M788.5,367.4c-1.1-41.7,29.5-51.1,47.9-64.5c-28,34.5-42,51.4-40.9,65.1
								C796.5,381.8,788.5,367.4,788.5,367.4z"/>
							<path id="XMLID_71_" class="st1" d="M770.9,378.6c-7.5-11.5-17.7-27.4-29-81.3c26.1,19.3,32.7,80.5,32.7,80.5L770.9,378.6z"/>
							<linearGradient id="XMLID_95_" gradientUnits="userSpaceOnUse" x1="730.334" y1="328.861" x2="786.2653" y2="328.861">
								<stop  offset="0" style="stop-color:#82F5A7"/>
								<stop  offset="1" style="stop-color:#201244"/>
							</linearGradient>
							<path id="XMLID_65_" class="st27" d="M783.1,367.6c-8.3-12.3,7.3-44.8-10.3-68c-17.6-23.1-42.4-22.4-42.4-22.4s25.2,12.5,30.2,37.2
								c5,24.7-9.8,28.4,12.3,54.8S783.1,367.6,783.1,367.6z"/>
							<path id="XMLID_69_" class="st1" d="M774.6,377.8c-11.8-30.6-2-95,4.2-120.6c26.6,42.8,5.4,120,5.4,120L774.6,377.8z"/>
							<linearGradient id="XMLID_98_" gradientUnits="userSpaceOnUse" x1="795.4658" y1="352.6971" x2="825.6177" y2="352.6971">
								<stop  offset="0" style="stop-color:#82F5A7"/>
								<stop  offset="1" style="stop-color:#201244"/>
							</linearGradient>
							<path id="XMLID_60_" class="st28" d="M799,375.6c13.5-11.1,26.1-24.8,26.6-48.7c-14,31.2-27.6,32.7-30,48.1
								C794.5,382.4,799,375.6,799,375.6z"/>
							<linearGradient id="XMLID_99_" gradientUnits="userSpaceOnUse" x1="778.3154" y1="343.5886" x2="791.2317" y2="343.5886">
								<stop  offset="0" style="stop-color:#82F5A7"/>
								<stop  offset="1" style="stop-color:#201244"/>
							</linearGradient>
							<path id="XMLID_75_" class="st29" d="M783.6,373.6c-8.2-14.1,1.6-47.1-5.3-60.1c17.4,23.7,12.2,60.1,12.2,60.1H783.6z"/>
							<linearGradient id="XMLID_100_" gradientUnits="userSpaceOnUse" x1="646.1357" y1="405.0501" x2="800.4214" y2="397.9072">
								<stop  offset="0" style="stop-color:#201244"/>
								<stop  offset="1" style="stop-color:#82F5A7"/>
							</linearGradient>
							<path id="XMLID_82_" class="st30" d="M816.1,366.7c4.6,0,7.9,4.3,6.7,8.7l-3.7,42.6v0c-2.1,7.8-9.3,13.3-17.4,13.3h-33.5
								c-8.1,0-15.2-5.4-17.4-13.3v0l-3.7-42.6c-1.2-4.4,2.1-8.7,6.7-8.7H816.1z"/>
							<rect id="XMLID_9_" x="728.4" y="431.3" class="st1" width="388.1" height="18"/>
							<linearGradient id="XMLID_101_" gradientUnits="userSpaceOnUse" x1="953.4169" y1="367.4354" x2="1084.8456" y2="376.0069">
								<stop  offset="0" style="stop-color:#82F5A7"/>
								<stop  offset="1" style="stop-color:#201244"/>
							</linearGradient>
							<rect id="XMLID_5_" x="1027.3" y="314.8" class="st31" width="23.3" height="116.5"/>
							<linearGradient id="XMLID_102_" gradientUnits="userSpaceOnUse" x1="966.2706" y1="367.8361" x2="1134.8662" y2="367.8361">
								<stop  offset="0" style="stop-color:#82F5A7"/>
								<stop  offset="1" style="stop-color:#201244"/>
							</linearGradient>
							<rect id="XMLID_7_" x="997.1" y="304.4" class="st32" width="30.2" height="126.8"/>
							<rect id="XMLID_14_" x="868" y="381.8" class="st1" width="123.1" height="15.1"/>
							<rect id="XMLID_15_" x="864.3" y="366.6" class="st1" width="123.1" height="15.1"/>
							<linearGradient id="XMLID_103_" gradientUnits="userSpaceOnUse" x1="964.3177" y1="382.8838" x2="1275.7462" y2="357.1695">
								<stop  offset="0" style="stop-color:#82F5A7"/>
								<stop  offset="1" style="stop-color:#201244"/>
							</linearGradient>
							<polygon id="XMLID_10_" class="st33" points="1074.6,317.1 1050.6,320 1064.3,431.3 1088.3,428.4 	"/>
							<linearGradient id="XMLID_104_" gradientUnits="userSpaceOnUse" x1="925.9927" y1="426.798" x2="924.5641" y2="323.9409">
								<stop  offset="0" style="stop-color:#82F5A7"/>
								<stop  offset="1" style="stop-color:#201244"/>
							</linearGradient>
							<rect id="XMLID_12_" x="862.4" y="396.9" class="st34" width="126.8" height="34.4"/>
						</g>
						</svg>